999
DXF created with openFrameworks
  0
SECTION
  2
HEADER
  9
$ACADVER
  1
AC1014
  9
$HANDSEED
  5
FFFF
  9
$MEASUREMENT
 70
     1
  0
ENDSEC
  0
SECTION
  2
TABLES
  0
TABLE
  2
VPORT
  5
8
330
0
100
AcDbSymbolTable
 70
     4
  0
VPORT
  5
2E
330
8
100
AcDbSymbolTableRecord
100
AcDbViewportTableRecord
  2
*ACTIVE
 70
     0
 10
0.0
 20
0.0
 11
1.0
 21
1.0
 12
210.0
 22
148.5
 13
0.0
 23
0.0
 14
10.0
 24
10.0
 15
10.0
 25
10.0
 16
0.0
 26
0.0
 36
1.0
 17
0.0
 27
0.0
 37
0.0
 40
341.0
 41
1.24
 42
50.0
 43
0.0
 44
0.0
 50
0.0
 51
0.0
 71
 0
 72
 100
 73
 1
 74
 3
 75
 0
 76
 0 
 77
 0 
 78
 0 
 0 
ENDTAB
 0 
TABLE
 2
LTYPE
 5
 5
 330
 0
 100
 AcDbSymbolTable
 70
 1
 0
LTYPE
 5
14
330
5
100
AcDbSymbolTableRecord
100
AcDbLinetypeTableRecord
 2
BYBLOCK
 70
 0
  3
 72
 65
 73
 0
 40
0.0
  0
LTYPE
  5
15
330
5
100
AcDbSymbolTableRecord
100
AcDbLinetypeTableRecord
  2
BYLAYER
 70
     0
  3
 72
    65
 73
     0
 40
0.0
  0
LTYPE
  5
16
330
5
100
AcDbSymbolTableRecord
100
AcDbLinetypeTableRecord
  2
CONTINUOUS
 70
 0
  3
Solid line
 72
 65
 73
     0
 40
0.0
  0
ENDTAB
  0
TABLE
  2
LAYER
  5
2
100
AcDbSymbolTable
 70
1
  0
LAYER
  5
50
100
AcDbSymbolTableRecord
100
AcDbLayerTableRecord
  2
0
 70
0
  6
CONTINUOUS
  0
ENDTAB
  0
TABLE
  2
STYLE
  5
3
330
0
100
AcDbSymbolTable
 70
     1
  0
STYLE
  5
11
330
3
100
AcDbSymbolTableRecord
100
AcDbTextStyleTableRecord
  2
STANDARD
 70
 0
 40
0.0
 41
1.0
 50
0.0
 71
 0
 42
2.5
  3
txt
  4
  0
ENDTAB
  0
TABLE
  2
VIEW
  5
6
330
0
100
AcDbSymbolTable
 70
     0
  0
ENDTAB
  0
TABLE
  2
UCS
  5
7
330
0
100
AcDbSymbolTable
 70
 0
  0
ENDTAB
  0
TABLE
  2
APPID
  5
9
330
0
100
AcDbSymbolTable
 70
     2
  0
APPID
  5
12
330
9
100
AcDbSymbolTableRecord
100
AcDbRegAppTableRecord
  2
ACAD
 70
     0
  0
ENDTAB
  0
TABLE
  2
DIMSTYLE
  5
A
330
0
100
AcDbSymbolTable
 70
     1
  0
DIMSTYLE
105
27
330
A
100
AcDbSymbolTableRecord
100
AcDbDimStyleTableRecord
  2
ISO-25
 70
 0
  3
  4
  5
  6
  7
 40
1.0
 41
2.5
 42
0.625
 43
3.75
 44
1.25
 45
0.0
 46
0.0
 47
0.0
 48
0.0
140
2.5
141
2.5
142
0.0
143
0.03937007874016
144
1.0
145
0.0
146
1.0
147
0.625
 71
     0
 72
     0
 73
     0
 74
     0
 75
     0
 76
     0
 77
     1
 78
     8
170
     0
171
     3
172
     1
173
     0
174
     0
175
     0
176
     0
177
     0
178
     0
270
     2
271
     2
272
     2
273
     2
274
     3
340
11
275
     0
280
     0
281
     0
282
     0
283
     0
284
     8
285
     0
286
     0
287
     3
288
     0
  0
ENDTAB
  0
TABLE
  2
BLOCK_RECORD
  5
1
330
0
100
AcDbSymbolTable
 70
     1
  0
BLOCK_RECORD
  5
1F
330
1
100
AcDbSymbolTableRecord
100
AcDbBlockTableRecord
  2
*MODEL_SPACE
  0
BLOCK_RECORD
  5
1B
330
1
100
AcDbSymbolTableRecord
100
AcDbBlockTableRecord
  2
*PAPER_SPACE
  0
ENDTAB
  0
ENDSEC
  0
SECTION
  2
BLOCKS
  0
BLOCK
  5
20
330
1F
100
AcDbEntity
  8
0
100
AcDbBlockBegin
  2
*MODEL_SPACE
 70
     0
 10
0.0
 20
0.0
 30
0.0
  3
*MODEL_SPACE
  1
  0
ENDBLK
  5
21
330
1F
100
AcDbEntity
  8
0
100
AcDbBlockEnd
  0
BLOCK
  5
1C
330
1B
100
AcDbEntity
 67
     1
  8
0
100
AcDbBlockBegin
  2
*PAPER_SPACE
  1
  0
ENDBLK
  5
1D
330
1B
100
AcDbEntity
 67
     1
  8
0
100
AcDbBlockEnd
  0
ENDSEC
  0
SECTION
  2
ENTITIES
  0
LWPOLYLINE
5
100
100
AcDbEntity
8
0
62
7
100
AcDbPolyline
90
719
70
0
10
176
20
550
30
0.0
10
176
20
548
30
0.0
10
176
20
545
30
0.0
10
176
20
543
30
0.0
10
176
20
541
30
0.0
10
178
20
538
30
0.0
10
178
20
535
30
0.0
10
179
20
532
30
0.0
10
180
20
528
30
0.0
10
181
20
523
30
0.0
10
182
20
520
30
0.0
10
184
20
515
30
0.0
10
185
20
511
30
0.0
10
187
20
508
30
0.0
10
188
20
504
30
0.0
10
190
20
500
30
0.0
10
192
20
497
30
0.0
10
193
20
491
30
0.0
10
197
20
484
30
0.0
10
198
20
480
30
0.0
10
200
20
477
30
0.0
10
200
20
475
30
0.0
10
201
20
473
30
0.0
10
202
20
471
30
0.0
10
204
20
470
30
0.0
10
205
20
467
30
0.0
10
207
20
466
30
0.0
10
210
20
463
30
0.0
10
211
20
460
30
0.0
10
213
20
459
30
0.0
10
215
20
457
30
0.0
10
218
20
455
30
0.0
10
219
20
454
30
0.0
10
221
20
452
30
0.0
10
222
20
451
30
0.0
10
224
20
450
30
0.0
10
225
20
450
30
0.0
10
227
20
449
30
0.0
10
227
20
449
30
0.0
10
228
20
449
30
0.0
10
230
20
449
30
0.0
10
230
20
448
30
0.0
10
232
20
448
30
0.0
10
233
20
448
30
0.0
10
235
20
448
30
0.0
10
236
20
448
30
0.0
10
238
20
448
30
0.0
10
239
20
448
30
0.0
10
241
20
447
30
0.0
10
243
20
446
30
0.0
10
246
20
446
30
0.0
10
249
20
444
30
0.0
10
252
20
441
30
0.0
10
255
20
437
30
0.0
10
258
20
433
30
0.0
10
259
20
429
30
0.0
10
261
20
425
30
0.0
10
264
20
423
30
0.0
10
264
20
419
30
0.0
10
266
20
416
30
0.0
10
267
20
413
30
0.0
10
268
20
410
30
0.0
10
269
20
407
30
0.0
10
270
20
404
30
0.0
10
271
20
400
30
0.0
10
273
20
396
30
0.0
10
273
20
391
30
0.0
10
273
20
386
30
0.0
10
274
20
380
30
0.0
10
274
20
373
30
0.0
10
274
20
367
30
0.0
10
273
20
360
30
0.0
10
271
20
354
30
0.0
10
270
20
350
30
0.0
10
268
20
347
30
0.0
10
267
20
342
30
0.0
10
267
20
339
30
0.0
10
266
20
335
30
0.0
10
266
20
332
30
0.0
10
265
20
329
30
0.0
10
265
20
328
30
0.0
10
265
20
325
30
0.0
10
264
20
322
30
0.0
10
264
20
319
30
0.0
10
264
20
317
30
0.0
10
263
20
316
30
0.0
10
263
20
315
30
0.0
10
263
20
314
30
0.0
10
260
20
311
30
0.0
10
258
20
310
30
0.0
10
257
20
308
30
0.0
10
256
20
307
30
0.0
10
254
20
306
30
0.0
10
253
20
305
30
0.0
10
251
20
304
30
0.0
10
250
20
303
30
0.0
10
245
20
300
30
0.0
10
240
20
298
30
0.0
10
234
20
295
30
0.0
10
230
20
293
30
0.0
10
227
20
291
30
0.0
10
226
20
290
30
0.0
10
224
20
290
30
0.0
10
223
20
290
30
0.0
10
220
20
288
30
0.0
10
218
20
287
30
0.0
10
216
20
287
30
0.0
10
215
20
286
30
0.0
10
213
20
284
30
0.0
10
211
20
284
30
0.0
10
210
20
282
30
0.0
10
208
20
281
30
0.0
10
207
20
280
30
0.0
10
205
20
279
30
0.0
10
204
20
278
30
0.0
10
203
20
277
30
0.0
10
201
20
275
30
0.0
10
199
20
274
30
0.0
10
198
20
273
30
0.0
10
196
20
270
30
0.0
10
195
20
267
30
0.0
10
193
20
264
30
0.0
10
193
20
263
30
0.0
10
192
20
261
30
0.0
10
192
20
259
30
0.0
10
192
20
258
30
0.0
10
192
20
255
30
0.0
10
192
20
254
30
0.0
10
192
20
252
30
0.0
10
192
20
251
30
0.0
10
192
20
250
30
0.0
10
193
20
249
30
0.0
10
193
20
248
30
0.0
10
193
20
247
30
0.0
10
194
20
246
30
0.0
10
196
20
244
30
0.0
10
196
20
242
30
0.0
10
197
20
242
30
0.0
10
198
20
242
30
0.0
10
199
20
242
30
0.0
10
200
20
242
30
0.0
10
201
20
240
30
0.0
10
207
20
239
30
0.0
10
208
20
239
30
0.0
10
210
20
239
30
0.0
10
212
20
238
30
0.0
10
213
20
238
30
0.0
10
216
20
237
30
0.0
10
219
20
237
30
0.0
10
221
20
236
30
0.0
10
222
20
236
30
0.0
10
224
20
236
30
0.0
10
224
20
236
30
0.0
10
226
20
236
30
0.0
10
229
20
236
30
0.0
10
232
20
236
30
0.0
10
233
20
236
30
0.0
10
234
20
236
30
0.0
10
235
20
236
30
0.0
10
237
20
236
30
0.0
10
238
20
236
30
0.0
10
241
20
236
30
0.0
10
242
20
236
30
0.0
10
246
20
237
30
0.0
10
249
20
237
30
0.0
10
253
20
238
30
0.0
10
258
20
238
30
0.0
10
259
20
238
30
0.0
10
261
20
238
30
0.0
10
262
20
238
30
0.0
10
264
20
238
30
0.0
10
266
20
238
30
0.0
10
269
20
238
30
0.0
10
270
20
239
30
0.0
10
272
20
239
30
0.0
10
274
20
239
30
0.0
10
276
20
239
30
0.0
10
278
20
239
30
0.0
10
280
20
239
30
0.0
10
283
20
239
30
0.0
10
284
20
239
30
0.0
10
287
20
239
30
0.0
10
291
20
239
30
0.0
10
293
20
239
30
0.0
10
297
20
239
30
0.0
10
299
20
239
30
0.0
10
300
20
239
30
0.0
10
301
20
239
30
0.0
10
303
20
239
30
0.0
10
304
20
239
30
0.0
10
305
20
239
30
0.0
10
307
20
239
30
0.0
10
308
20
239
30
0.0
10
310
20
239
30
0.0
10
311
20
239
30
0.0
10
313
20
239
30
0.0
10
314
20
239
30
0.0
10
316
20
239
30
0.0
10
318
20
239
30
0.0
10
320
20
239
30
0.0
10
321
20
239
30
0.0
10
322
20
239
30
0.0
10
324
20
239
30
0.0
10
325
20
239
30
0.0
10
327
20
239
30
0.0
10
327
20
239
30
0.0
10
328
20
239
30
0.0
10
328
20
240
30
0.0
10
328
20
241
30
0.0
10
328
20
242
30
0.0
10
328
20
243
30
0.0
10
328
20
243
30
0.0
10
328
20
244
30
0.0
10
327
20
244
30
0.0
10
327
20
246
30
0.0
10
326
20
246
30
0.0
10
326
20
247
30
0.0
10
325
20
247
30
0.0
10
325
20
249
30
0.0
10
325
20
249
30
0.0
10
323
20
252
30
0.0
10
322
20
252
30
0.0
10
322
20
253
30
0.0
10
321
20
254
30
0.0
10
321
20
255
30
0.0
10
320
20
257
30
0.0
10
320
20
257
30
0.0
10
318
20
259
30
0.0
10
317
20
260
30
0.0
10
317
20
261
30
0.0
10
317
20
263
30
0.0
10
317
20
264
30
0.0
10
316
20
266
30
0.0
10
316
20
268
30
0.0
10
314
20
269
30
0.0
10
314
20
271
30
0.0
10
314
20
272
30
0.0
10
314
20
274
30
0.0
10
314
20
276
30
0.0
10
314
20
277
30
0.0
10
314
20
280
30
0.0
10
314
20
281
30
0.0
10
314
20
283
30
0.0
10
314
20
284
30
0.0
10
314
20
286
30
0.0
10
314
20
287
30
0.0
10
314
20
289
30
0.0
10
314
20
292
30
0.0
10
314
20
293
30
0.0
10
314
20
295
30
0.0
10
314
20
295
30
0.0
10
314
20
297
30
0.0
10
314
20
298
30
0.0
10
314
20
300
30
0.0
10
314
20
302
30
0.0
10
314
20
303
30
0.0
10
314
20
306
30
0.0
10
316
20
307
30
0.0
10
317
20
309
30
0.0
10
317
20
312
30
0.0
10
319
20
314
30
0.0
10
319
20
315
30
0.0
10
320
20
317
30
0.0
10
320
20
318
30
0.0
10
322
20
319
30
0.0
10
322
20
320
30
0.0
10
323
20
323
30
0.0
10
323
20
324
30
0.0
10
325
20
324
30
0.0
10
325
20
326
30
0.0
10
325
20
327
30
0.0
10
327
20
329
30
0.0
10
328
20
331
30
0.0
10
331
20
335
30
0.0
10
333
20
337
30
0.0
10
334
20
338
30
0.0
10
335
20
340
30
0.0
10
337
20
343
30
0.0
10
338
20
344
30
0.0
10
340
20
346
30
0.0
10
341
20
348
30
0.0
10
343
20
349
30
0.0
10
344
20
351
30
0.0
10
347
20
354
30
0.0
10
348
20
355
30
0.0
10
350
20
357
30
0.0
10
351
20
358
30
0.0
10
352
20
361
30
0.0
10
354
20
363
30
0.0
10
355
20
364
30
0.0
10
356
20
366
30
0.0
10
357
20
366
30
0.0
10
359
20
368
30
0.0
10
360
20
369
30
0.0
10
361
20
369
30
0.0
10
361
20
370
30
0.0
10
362
20
370
30
0.0
10
363
20
371
30
0.0
10
364
20
372
30
0.0
10
365
20
373
30
0.0
10
367
20
375
30
0.0
10
368
20
375
30
0.0
10
373
20
378
30
0.0
10
374
20
379
30
0.0
10
375
20
381
30
0.0
10
376
20
381
30
0.0
10
377
20
381
30
0.0
10
379
20
383
30
0.0
10
380
20
383
30
0.0
10
381
20
383
30
0.0
10
382
20
384
30
0.0
10
383
20
386
30
0.0
10
384
20
386
30
0.0
10
386
20
386
30
0.0
10
387
20
388
30
0.0
10
388
20
388
30
0.0
10
388
20
389
30
0.0
10
389
20
389
30
0.0
10
390
20
390
30
0.0
10
391
20
390
30
0.0
10
392
20
390
30
0.0
10
392
20
392
30
0.0
10
393
20
392
30
0.0
10
394
20
392
30
0.0
10
396
20
392
30
0.0
10
397
20
392
30
0.0
10
399
20
392
30
0.0
10
400
20
392
30
0.0
10
401
20
392
30
0.0
10
404
20
392
30
0.0
10
406
20
392
30
0.0
10
408
20
392
30
0.0
10
411
20
392
30
0.0
10
413
20
392
30
0.0
10
414
20
392
30
0.0
10
414
20
392
30
0.0
10
415
20
392
30
0.0
10
416
20
392
30
0.0
10
417
20
392
30
0.0
10
418
20
392
30
0.0
10
420
20
392
30
0.0
10
422
20
392
30
0.0
10
425
20
392
30
0.0
10
427
20
392
30
0.0
10
430
20
392
30
0.0
10
432
20
392
30
0.0
10
435
20
392
30
0.0
10
438
20
392
30
0.0
10
440
20
392
30
0.0
10
442
20
391
30
0.0
10
445
20
391
30
0.0
10
447
20
390
30
0.0
10
451
20
390
30
0.0
10
452
20
389
30
0.0
10
454
20
389
30
0.0
10
457
20
389
30
0.0
10
458
20
388
30
0.0
10
462
20
388
30
0.0
10
466
20
388
30
0.0
10
471
20
387
30
0.0
10
476
20
387
30
0.0
10
480
20
386
30
0.0
10
483
20
386
30
0.0
10
486
20
386
30
0.0
10
489
20
386
30
0.0
10
491
20
385
30
0.0
10
494
20
385
30
0.0
10
496
20
383
30
0.0
10
497
20
383
30
0.0
10
499
20
383
30
0.0
10
500
20
383
30
0.0
10
503
20
383
30
0.0
10
505
20
383
30
0.0
10
506
20
383
30
0.0
10
508
20
382
30
0.0
10
509
20
382
30
0.0
10
511
20
382
30
0.0
10
513
20
382
30
0.0
10
516
20
382
30
0.0
10
520
20
382
30
0.0
10
523
20
382
30
0.0
10
526
20
382
30
0.0
10
528
20
382
30
0.0
10
529
20
382
30
0.0
10
535
20
382
30
0.0
10
540
20
382
30
0.0
10
541
20
382
30
0.0
10
543
20
382
30
0.0
10
544
20
382
30
0.0
10
546
20
383
30
0.0
10
549
20
383
30
0.0
10
552
20
384
30
0.0
10
554
20
384
30
0.0
10
557
20
386
30
0.0
10
558
20
386
30
0.0
10
560
20
387
30
0.0
10
562
20
387
30
0.0
10
563
20
388
30
0.0
10
564
20
388
30
0.0
10
566
20
388
30
0.0
10
569
20
389
30
0.0
10
571
20
390
30
0.0
10
573
20
391
30
0.0
10
575
20
391
30
0.0
10
577
20
392
30
0.0
10
581
20
392
30
0.0
10
586
20
393
30
0.0
10
591
20
393
30
0.0
10
597
20
395
30
0.0
10
603
20
396
30
0.0
10
607
20
397
30
0.0
10
612
20
397
30
0.0
10
615
20
398
30
0.0
10
618
20
398
30
0.0
10
623
20
398
30
0.0
10
627
20
398
30
0.0
10
631
20
399
30
0.0
10
634
20
399
30
0.0
10
639
20
400
30
0.0
10
642
20
400
30
0.0
10
644
20
400
30
0.0
10
647
20
401
30
0.0
10
650
20
401
30
0.0
10
652
20
401
30
0.0
10
654
20
402
30
0.0
10
657
20
402
30
0.0
10
658
20
403
30
0.0
10
661
20
403
30
0.0
10
663
20
404
30
0.0
10
664
20
404
30
0.0
10
665
20
404
30
0.0
10
666
20
404
30
0.0
10
668
20
404
30
0.0
10
671
20
405
30
0.0
10
672
20
406
30
0.0
10
675
20
407
30
0.0
10
678
20
407
30
0.0
10
681
20
408
30
0.0
10
684
20
409
30
0.0
10
686
20
409
30
0.0
10
690
20
409
30
0.0
10
693
20
411
30
0.0
10
698
20
412
30
0.0
10
701
20
412
30
0.0
10
704
20
412
30
0.0
10
705
20
412
30
0.0
10
707
20
413
30
0.0
10
709
20
415
30
0.0
10
712
20
415
30
0.0
10
715
20
417
30
0.0
10
718
20
418
30
0.0
10
719
20
420
30
0.0
10
722
20
422
30
0.0
10
724
20
425
30
0.0
10
726
20
426
30
0.0
10
727
20
428
30
0.0
10
728
20
429
30
0.0
10
728
20
431
30
0.0
10
729
20
432
30
0.0
10
729
20
435
30
0.0
10
729
20
436
30
0.0
10
729
20
437
30
0.0
10
729
20
438
30
0.0
10
729
20
439
30
0.0
10
729
20
441
30
0.0
10
729
20
442
30
0.0
10
727
20
444
30
0.0
10
726
20
446
30
0.0
10
725
20
448
30
0.0
10
724
20
449
30
0.0
10
723
20
451
30
0.0
10
723
20
452
30
0.0
10
722
20
453
30
0.0
10
722
20
455
30
0.0
10
721
20
456
30
0.0
10
721
20
459
30
0.0
10
719
20
461
30
0.0
10
718
20
462
30
0.0
10
716
20
464
30
0.0
10
713
20
467
30
0.0
10
710
20
469
30
0.0
10
708
20
471
30
0.0
10
705
20
474
30
0.0
10
704
20
475
30
0.0
10
701
20
478
30
0.0
10
698
20
480
30
0.0
10
695
20
481
30
0.0
10
692
20
483
30
0.0
10
689
20
484
30
0.0
10
687
20
486
30
0.0
10
684
20
486
30
0.0
10
681
20
487
30
0.0
10
680
20
488
30
0.0
10
678
20
488
30
0.0
10
675
20
490
30
0.0
10
671
20
490
30
0.0
10
668
20
491
30
0.0
10
664
20
492
30
0.0
10
661
20
492
30
0.0
10
658
20
492
30
0.0
10
655
20
492
30
0.0
10
652
20
493
30
0.0
10
650
20
493
30
0.0
10
647
20
494
30
0.0
10
643
20
495
30
0.0
10
641
20
495
30
0.0
10
638
20
495
30
0.0
10
636
20
495
30
0.0
10
634
20
495
30
0.0
10
632
20
495
30
0.0
10
629
20
496
30
0.0
10
626
20
496
30
0.0
10
623
20
496
30
0.0
10
621
20
498
30
0.0
10
618
20
498
30
0.0
10
613
20
500
30
0.0
10
610
20
500
30
0.0
10
607
20
501
30
0.0
10
605
20
501
30
0.0
10
603
20
501
30
0.0
10
599
20
502
30
0.0
10
596
20
502
30
0.0
10
592
20
504
30
0.0
10
589
20
504
30
0.0
10
587
20
504
30
0.0
10
585
20
504
30
0.0
10
583
20
504
30
0.0
10
581
20
504
30
0.0
10
579
20
505
30
0.0
10
576
20
505
30
0.0
10
574
20
505
30
0.0
10
571
20
505
30
0.0
10
568
20
505
30
0.0
10
566
20
505
30
0.0
10
564
20
505
30
0.0
10
563
20
505
30
0.0
10
561
20
505
30
0.0
10
558
20
505
30
0.0
10
556
20
505
30
0.0
10
555
20
505
30
0.0
10
552
20
505
30
0.0
10
549
20
505
30
0.0
10
548
20
505
30
0.0
10
546
20
505
30
0.0
10
544
20
505
30
0.0
10
542
20
505
30
0.0
10
540
20
505
30
0.0
10
537
20
505
30
0.0
10
536
20
505
30
0.0
10
532
20
505
30
0.0
10
529
20
505
30
0.0
10
526
20
505
30
0.0
10
523
20
505
30
0.0
10
520
20
506
30
0.0
10
517
20
506
30
0.0
10
514
20
507
30
0.0
10
506
20
507
30
0.0
10
503
20
508
30
0.0
10
500
20
508
30
0.0
10
497
20
508
30
0.0
10
496
20
508
30
0.0
10
494
20
508
30
0.0
10
494
20
508
30
0.0
10
492
20
508
30
0.0
10
491
20
508
30
0.0
10
489
20
510
30
0.0
10
488
20
510
30
0.0
10
486
20
510
30
0.0
10
485
20
510
30
0.0
10
483
20
510
30
0.0
10
483
20
510
30
0.0
10
477
20
510
30
0.0
10
474
20
510
30
0.0
10
471
20
510
30
0.0
10
469
20
510
30
0.0
10
466
20
510
30
0.0
10
463
20
510
30
0.0
10
460
20
510
30
0.0
10
456
20
510
30
0.0
10
452
20
510
30
0.0
10
449
20
510
30
0.0
10
446
20
510
30
0.0
10
443
20
510
30
0.0
10
440
20
510
30
0.0
10
439
20
510
30
0.0
10
437
20
509
30
0.0
10
434
20
509
30
0.0
10
431
20
509
30
0.0
10
430
20
509
30
0.0
10
427
20
509
30
0.0
10
423
20
509
30
0.0
10
419
20
508
30
0.0
10
416
20
508
30
0.0
10
413
20
508
30
0.0
10
409
20
508
30
0.0
10
403
20
507
30
0.0
10
397
20
506
30
0.0
10
391
20
506
30
0.0
10
386
20
505
30
0.0
10
378
20
505
30
0.0
10
374
20
505
30
0.0
10
371
20
505
30
0.0
10
370
20
505
30
0.0
10
368
20
505
30
0.0
10
368
20
505
30
0.0
10
366
20
505
30
0.0
10
365
20
505
30
0.0
10
362
20
505
30
0.0
10
360
20
505
30
0.0
10
357
20
505
30
0.0
10
356
20
505
30
0.0
10
354
20
505
30
0.0
10
352
20
506
30
0.0
10
349
20
506
30
0.0
10
343
20
508
30
0.0
10
339
20
510
30
0.0
10
335
20
510
30
0.0
10
332
20
512
30
0.0
10
330
20
512
30
0.0
10
327
20
514
30
0.0
10
325
20
515
30
0.0
10
323
20
515
30
0.0
10
319
20
516
30
0.0
10
314
20
516
30
0.0
10
311
20
517
30
0.0
10
309
20
518
30
0.0
10
308
20
518
30
0.0
10
308
20
519
30
0.0
10
307
20
519
30
0.0
10
305
20
519
30
0.0
10
304
20
520
30
0.0
10
302
20
521
30
0.0
10
300
20
521
30
0.0
10
297
20
523
30
0.0
10
294
20
524
30
0.0
10
291
20
524
30
0.0
10
288
20
524
30
0.0
10
287
20
524
30
0.0
10
284
20
525
30
0.0
10
281
20
527
30
0.0
10
279
20
527
30
0.0
10
277
20
527
30
0.0
10
277
20
528
30
0.0
10
274
20
528
30
0.0
10
272
20
528
30
0.0
10
271
20
528
30
0.0
10
269
20
528
30
0.0
10
268
20
528
30
0.0
10
265
20
529
30
0.0
10
263
20
529
30
0.0
10
261
20
530
30
0.0
10
260
20
530
30
0.0
10
259
20
530
30
0.0
10
257
20
530
30
0.0
10
255
20
530
30
0.0
10
254
20
531
30
0.0
10
251
20
533
30
0.0
10
249
20
534
30
0.0
10
247
20
535
30
0.0
10
245
20
535
30
0.0
10
244
20
535
30
0.0
10
241
20
536
30
0.0
10
239
20
538
30
0.0
10
239
20
538
30
0.0
10
237
20
538
30
0.0
10
236
20
539
30
0.0
10
236
20
539
30
0.0
10
236
20
541
30
0.0
10
234
20
541
30
0.0
10
233
20
541
30
0.0
10
229
20
544
30
0.0
10
223
20
550
30
0.0
10
220
20
552
30
0.0
10
220
20
553
30
0.0
10
219
20
553
30
0.0
10
218
20
553
30
0.0
10
217
20
555
30
0.0
10
215
20
555
30
0.0
10
214
20
555
30
0.0
10
212
20
556
30
0.0
10
211
20
556
30
0.0
10
210
20
556
30
0.0
10
209
20
558
30
0.0
10
206
20
558
30
0.0
10
203
20
558
30
0.0
10
200
20
559
30
0.0
10
194
20
562
30
0.0
10
189
20
564
30
0.0
10
183
20
567
30
0.0
10
177
20
572
30
0.0
10
171
20
576
30
0.0
10
171
20
576
30
0.0
10
171
20
573
30
0.0
10
169
20
571
30
0.0
10
169
20
570
30
0.0
10
169
20
569
30
0.0
10
169
20
568
30
0.0
10
169
20
567
30
0.0
10
169
20
567
30
0.0
10
169
20
566
30
0.0
10
169
20
565
30
0.0
10
169
20
564
30
0.0
10
169
20
563
30
0.0
10
169
20
562
30
0.0
10
171
20
561
30
0.0
10
172
20
558
30
0.0
10
174
20
556
30
0.0
10
176
20
555
30
0.0
10
177
20
553
30
0.0
10
178
20
552
30
0.0
10
178
20
550
30
0.0
10
179
20
550
30
0.0
10
179
20
550
30
0.0
10
179
20
550
30
0.0
10
179
20
549
30
0.0
10
180
20
549
30
0.0
10
180
20
547
30
0.0
10
180
20
547
30
0.0
10
180
20
546
30
0.0
10
176
20
550
30
0.0
0
LWPOLYLINE
5
100
100
AcDbEntity
8
0
62
7
100
AcDbPolyline
90
778
70
0
10
248
20
184
30
0.0
10
249
20
185
30
0.0
10
253
20
185
30
0.0
10
259
20
185
30
0.0
10
265
20
185
30
0.0
10
273
20
184
30
0.0
10
285
20
183
30
0.0
10
296
20
181
30
0.0
10
313
20
178
30
0.0
10
317
20
178
30
0.0
10
322
20
176
30
0.0
10
326
20
176
30
0.0
10
330
20
176
30
0.0
10
334
20
176
30
0.0
10
340
20
176
30
0.0
10
346
20
176
30
0.0
10
351
20
176
30
0.0
10
355
20
176
30
0.0
10
359
20
176
30
0.0
10
362
20
177
30
0.0
10
365
20
177
30
0.0
10
370
20
179
30
0.0
10
376
20
180
30
0.0
10
381
20
182
30
0.0
10
385
20
184
30
0.0
10
390
20
186
30
0.0
10
393
20
187
30
0.0
10
397
20
190
30
0.0
10
400
20
191
30
0.0
10
402
20
193
30
0.0
10
402
20
194
30
0.0
10
402
20
196
30
0.0
10
404
20
199
30
0.0
10
404
20
200
30
0.0
10
405
20
202
30
0.0
10
405
20
204
30
0.0
10
405
20
205
30
0.0
10
405
20
207
30
0.0
10
405
20
210
30
0.0
10
405
20
212
30
0.0
10
405
20
213
30
0.0
10
405
20
215
30
0.0
10
405
20
216
30
0.0
10
405
20
217
30
0.0
10
405
20
219
30
0.0
10
405
20
220
30
0.0
10
405
20
221
30
0.0
10
405
20
224
30
0.0
10
404
20
225
30
0.0
10
402
20
227
30
0.0
10
402
20
229
30
0.0
10
400
20
230
30
0.0
10
399
20
233
30
0.0
10
398
20
234
30
0.0
10
396
20
237
30
0.0
10
395
20
240
30
0.0
10
394
20
243
30
0.0
10
394
20
245
30
0.0
10
393
20
248
30
0.0
10
393
20
250
30
0.0
10
393
20
252
30
0.0
10
393
20
255
30
0.0
10
393
20
256
30
0.0
10
394
20
259
30
0.0
10
396
20
262
30
0.0
10
398
20
266
30
0.0
10
399
20
269
30
0.0
10
402
20
271
30
0.0
10
405
20
274
30
0.0
10
407
20
276
30
0.0
10
410
20
278
30
0.0
10
412
20
279
30
0.0
10
415
20
282
30
0.0
10
419
20
284
30
0.0
10
422
20
285
30
0.0
10
426
20
287
30
0.0
10
429
20
288
30
0.0
10
431
20
289
30
0.0
10
434
20
289
30
0.0
10
437
20
289
30
0.0
10
440
20
289
30
0.0
10
445
20
289
30
0.0
10
451
20
289
30
0.0
10
460
20
289
30
0.0
10
468
20
289
30
0.0
10
474
20
289
30
0.0
10
480
20
289
30
0.0
10
488
20
289
30
0.0
10
495
20
289
30
0.0
10
498
20
288
30
0.0
10
501
20
288
30
0.0
10
505
20
288
30
0.0
10
508
20
288
30
0.0
10
512
20
288
30
0.0
10
518
20
288
30
0.0
10
523
20
288
30
0.0
10
529
20
288
30
0.0
10
535
20
288
30
0.0
10
548
20
288
30
0.0
10
554
20
288
30
0.0
10
559
20
288
30
0.0
10
567
20
288
30
0.0
10
577
20
290
30
0.0
10
585
20
291
30
0.0
10
597
20
293
30
0.0
10
605
20
296
30
0.0
10
614
20
298
30
0.0
10
625
20
301
30
0.0
10
634
20
305
30
0.0
10
645
20
311
30
0.0
10
663
20
319
30
0.0
10
677
20
328
30
0.0
10
693
20
338
30
0.0
10
706
20
346
30
0.0
10
715
20
351
30
0.0
10
726
20
357
30
0.0
10
733
20
362
30
0.0
10
740
20
365
30
0.0
10
747
20
371
30
0.0
10
753
20
376
30
0.0
10
756
20
382
30
0.0
10
759
20
385
30
0.0
10
764
20
395
30
0.0
10
769
20
405
30
0.0
10
770
20
412
30
0.0
10
771
20
420
30
0.0
10
771
20
432
30
0.0
10
771
20
442
30
0.0
10
769
20
451
30
0.0
10
768
20
460
30
0.0
10
765
20
471
30
0.0
10
762
20
483
30
0.0
10
757
20
492
30
0.0
10
751
20
501
30
0.0
10
743
20
511
30
0.0
10
732
20
520
30
0.0
10
723
20
528
30
0.0
10
711
20
537
30
0.0
10
696
20
543
30
0.0
10
683
20
547
30
0.0
10
660
20
552
30
0.0
10
643
20
555
30
0.0
10
623
20
559
30
0.0
10
600
20
562
30
0.0
10
580
20
565
30
0.0
10
563
20
567
30
0.0
10
549
20
567
30
0.0
10
536
20
567
30
0.0
10
519
20
567
30
0.0
10
508
20
567
30
0.0
10
494
20
566
30
0.0
10
485
20
564
30
0.0
10
473
20
563
30
0.0
10
462
20
561
30
0.0
10
444
20
560
30
0.0
10
429
20
557
30
0.0
10
396
20
555
30
0.0
10
392
20
555
30
0.0
10
389
20
554
30
0.0
10
388
20
554
30
0.0
10
387
20
554
30
0.0
10
385
20
554
30
0.0
10
382
20
554
30
0.0
10
374
20
554
30
0.0
10
371
20
554
30
0.0
10
366
20
555
30
0.0
10
359
20
557
30
0.0
10
350
20
560
30
0.0
10
342
20
562
30
0.0
10
335
20
564
30
0.0
10
331
20
565
30
0.0
10
323
20
568
30
0.0
10
317
20
571
30
0.0
10
308
20
575
30
0.0
10
295
20
581
30
0.0
10
278
20
589
30
0.0
10
263
20
596
30
0.0
10
247
20
602
30
0.0
10
233
20
609
30
0.0
10
219
20
615
30
0.0
10
200
20
624
30
0.0
10
182
20
630
30
0.0
10
163
20
635
30
0.0
10
145
20
638
30
0.0
10
134
20
640
30
0.0
10
127
20
640
30
0.0
10
120
20
640
30
0.0
10
114
20
640
30
0.0
10
108
20
639
30
0.0
10
100
20
636
30
0.0
10
92
20
633
30
0.0
10
82
20
627
30
0.0
10
79
20
624
30
0.0
10
76
20
621
30
0.0
10
76
20
618
30
0.0
10
74
20
610
30
0.0
10
73
20
597
30
0.0
10
73
20
582
30
0.0
10
75
20
566
30
0.0
10
76
20
555
30
0.0
10
77
20
541
30
0.0
10
79
20
530
30
0.0
10
80
20
518
30
0.0
10
83
20
495
30
0.0
10
83
20
486
30
0.0
10
83
20
478
30
0.0
10
83
20
470
30
0.0
10
85
20
464
30
0.0
10
87
20
456
30
0.0
10
90
20
449
30
0.0
10
93
20
444
30
0.0
10
97
20
438
30
0.0
10
111
20
427
30
0.0
10
124
20
418
30
0.0
10
130
20
412
30
0.0
10
136
20
406
30
0.0
10
142
20
395
30
0.0
10
145
20
388
30
0.0
10
147
20
382
30
0.0
10
148
20
377
30
0.0
10
148
20
374
30
0.0
10
148
20
369
30
0.0
10
145
20
360
30
0.0
10
140
20
351
30
0.0
10
128
20
329
30
0.0
10
119
20
319
30
0.0
10
111
20
308
30
0.0
10
104
20
297
30
0.0
10
98
20
288
30
0.0
10
92
20
279
30
0.0
10
87
20
272
30
0.0
10
83
20
266
30
0.0
10
82
20
260
30
0.0
10
80
20
253
30
0.0
10
79
20
247
30
0.0
10
78
20
242
30
0.0
10
78
20
239
30
0.0
10
78
20
234
30
0.0
10
78
20
228
30
0.0
10
78
20
217
30
0.0
10
78
20
214
30
0.0
10
81
20
206
30
0.0
10
84
20
202
30
0.0
10
86
20
198
30
0.0
10
88
20
194
30
0.0
10
91
20
190
30
0.0
10
97
20
186
30
0.0
10
102
20
183
30
0.0
10
115
20
175
30
0.0
10
122
20
172
30
0.0
10
128
20
169
30
0.0
10
141
20
166
30
0.0
10
147
20
166
30
0.0
10
155
20
166
30
0.0
10
161
20
167
30
0.0
10
166
20
168
30
0.0
10
172
20
171
30
0.0
10
175
20
172
30
0.0
10
180
20
175
30
0.0
10
182
20
177
30
0.0
10
187
20
180
30
0.0
10
188
20
183
30
0.0
10
190
20
186
30
0.0
10
191
20
187
30
0.0
10
191
20
189
30
0.0
10
191
20
192
30
0.0
10
191
20
194
30
0.0
10
191
20
197
30
0.0
10
191
20
200
30
0.0
10
190
20
203
30
0.0
10
187
20
207
30
0.0
10
186
20
209
30
0.0
10
183
20
212
30
0.0
10
181
20
215
30
0.0
10
178
20
219
30
0.0
10
175
20
224
30
0.0
10
173
20
226
30
0.0
10
172
20
229
30
0.0
10
170
20
232
30
0.0
10
164
20
239
30
0.0
10
162
20
242
30
0.0
10
159
20
249
30
0.0
10
159
20
254
30
0.0
10
159
20
257
30
0.0
10
159
20
261
30
0.0
10
159
20
264
30
0.0
10
160
20
266
30
0.0
10
160
20
268
30
0.0
10
161
20
270
30
0.0
10
162
20
273
30
0.0
10
164
20
274
30
0.0
10
167
20
279
30
0.0
10
171
20
285
30
0.0
10
176
20
291
30
0.0
10
181
20
297
30
0.0
10
184
20
300
30
0.0
10
185
20
302
30
0.0
10
187
20
303
30
0.0
10
189
20
306
30
0.0
10
192
20
309
30
0.0
10
194
20
313
30
0.0
10
200
20
319
30
0.0
10
205
20
325
30
0.0
10
209
20
334
30
0.0
10
212
20
340
30
0.0
10
214
20
349
30
0.0
10
215
20
353
30
0.0
10
215
20
360
30
0.0
10
217
20
370
30
0.0
10
219
20
377
30
0.0
10
219
20
389
30
0.0
10
219
20
392
30
0.0
10
219
20
395
30
0.0
10
219
20
396
30
0.0
10
217
20
398
30
0.0
10
217
20
401
30
0.0
10
216
20
404
30
0.0
10
213
20
411
30
0.0
10
211
20
412
30
0.0
10
208
20
416
30
0.0
10
207
20
417
30
0.0
10
205
20
418
30
0.0
10
202
20
421
30
0.0
10
201
20
423
30
0.0
10
199
20
425
30
0.0
10
196
20
426
30
0.0
10
196
20
427
30
0.0
10
194
20
429
30
0.0
10
193
20
429
30
0.0
10
191
20
430
30
0.0
10
190
20
430
30
0.0
10
185
20
432
30
0.0
10
184
20
433
30
0.0
10
181
20
435
30
0.0
10
177
20
438
30
0.0
10
175
20
439
30
0.0
10
173
20
439
30
0.0
10
172
20
441
30
0.0
10
170
20
442
30
0.0
10
168
20
444
30
0.0
10
164
20
450
30
0.0
10
162
20
452
30
0.0
10
161
20
453
30
0.0
10
159
20
457
30
0.0
10
159
20
458
30
0.0
10
159
20
459
30
0.0
10
158
20
461
30
0.0
10
158
20
467
30
0.0
10
156
20
471
30
0.0
10
154
20
480
30
0.0
10
153
20
493
30
0.0
10
150
20
505
30
0.0
10
147
20
522
30
0.0
10
144
20
538
30
0.0
10
142
20
550
30
0.0
10
141
20
571
30
0.0
10
141
20
578
30
0.0
10
141
20
583
30
0.0
10
141
20
588
30
0.0
10
141
20
590
30
0.0
10
141
20
591
30
0.0
10
141
20
592
30
0.0
10
141
20
593
30
0.0
10
142
20
594
30
0.0
10
144
20
594
30
0.0
10
147
20
595
30
0.0
10
154
20
596
30
0.0
10
157
20
598
30
0.0
10
166
20
598
30
0.0
10
171
20
598
30
0.0
10
176
20
598
30
0.0
10
180
20
598
30
0.0
10
186
20
596
30
0.0
10
189
20
596
30
0.0
10
194
20
595
30
0.0
10
197
20
593
30
0.0
10
201
20
592
30
0.0
10
203
20
592
30
0.0
10
207
20
590
30
0.0
10
210
20
590
30
0.0
10
215
20
585
30
0.0
10
218
20
584
30
0.0
10
221
20
582
30
0.0
10
224
20
581
30
0.0
10
229
20
578
30
0.0
10
232
20
576
30
0.0
10
235
20
575
30
0.0
10
236
20
575
30
0.0
10
240
20
573
30
0.0
10
243
20
572
30
0.0
10
247
20
570
30
0.0
10
252
20
570
30
0.0
10
256
20
569
30
0.0
10
275
20
562
30
0.0
10
282
20
560
30
0.0
10
289
20
557
30
0.0
10
294
20
554
30
0.0
10
300
20
552
30
0.0
10
306
20
549
30
0.0
10
311
20
547
30
0.0
10
314
20
544
30
0.0
10
318
20
543
30
0.0
10
321
20
543
30
0.0
10
324
20
543
30
0.0
10
327
20
543
30
0.0
10
330
20
542
30
0.0
10
334
20
540
30
0.0
10
337
20
540
30
0.0
10
344
20
538
30
0.0
10
347
20
536
30
0.0
10
351
20
534
30
0.0
10
356
20
534
30
0.0
10
358
20
533
30
0.0
10
361
20
533
30
0.0
10
364
20
532
30
0.0
10
368
20
532
30
0.0
10
374
20
532
30
0.0
10
380
20
531
30
0.0
10
386
20
531
30
0.0
10
392
20
529
30
0.0
10
403
20
529
30
0.0
10
407
20
527
30
0.0
10
412
20
527
30
0.0
10
417
20
527
30
0.0
10
419
20
527
30
0.0
10
422
20
527
30
0.0
10
426
20
527
30
0.0
10
430
20
527
30
0.0
10
434
20
527
30
0.0
10
438
20
527
30
0.0
10
442
20
527
30
0.0
10
446
20
529
30
0.0
10
452
20
529
30
0.0
10
454
20
529
30
0.0
10
457
20
529
30
0.0
10
464
20
529
30
0.0
10
467
20
529
30
0.0
10
471
20
529
30
0.0
10
474
20
531
30
0.0
10
479
20
531
30
0.0
10
483
20
531
30
0.0
10
493
20
532
30
0.0
10
499
20
532
30
0.0
10
503
20
532
30
0.0
10
508
20
532
30
0.0
10
512
20
532
30
0.0
10
519
20
532
30
0.0
10
522
20
532
30
0.0
10
526
20
532
30
0.0
10
530
20
532
30
0.0
10
534
20
533
30
0.0
10
538
20
533
30
0.0
10
543
20
533
30
0.0
10
547
20
533
30
0.0
10
555
20
534
30
0.0
10
560
20
534
30
0.0
10
566
20
534
30
0.0
10
570
20
534
30
0.0
10
575
20
534
30
0.0
10
579
20
534
30
0.0
10
589
20
534
30
0.0
10
593
20
534
30
0.0
10
598
20
534
30
0.0
10
602
20
534
30
0.0
10
607
20
534
30
0.0
10
612
20
534
30
0.0
10
615
20
534
30
0.0
10
620
20
534
30
0.0
10
625
20
534
30
0.0
10
629
20
532
30
0.0
10
634
20
532
30
0.0
10
637
20
532
30
0.0
10
639
20
532
30
0.0
10
642
20
530
30
0.0
10
646
20
529
30
0.0
10
651
20
527
30
0.0
10
657
20
526
30
0.0
10
663
20
524
30
0.0
10
666
20
523
30
0.0
10
669
20
521
30
0.0
10
672
20
521
30
0.0
10
674
20
520
30
0.0
10
677
20
520
30
0.0
10
679
20
520
30
0.0
10
681
20
518
30
0.0
10
683
20
517
30
0.0
10
684
20
517
30
0.0
10
687
20
517
30
0.0
10
690
20
516
30
0.0
10
692
20
515
30
0.0
10
694
20
514
30
0.0
10
696
20
512
30
0.0
10
698
20
511
30
0.0
10
701
20
509
30
0.0
10
702
20
508
30
0.0
10
707
20
506
30
0.0
10
711
20
503
30
0.0
10
715
20
501
30
0.0
10
719
20
500
30
0.0
10
722
20
497
30
0.0
10
725
20
496
30
0.0
10
728
20
495
30
0.0
10
730
20
493
30
0.0
10
732
20
492
30
0.0
10
735
20
491
30
0.0
10
736
20
489
30
0.0
10
738
20
488
30
0.0
10
740
20
486
30
0.0
10
743
20
483
30
0.0
10
746
20
480
30
0.0
10
749
20
477
30
0.0
10
750
20
475
30
0.0
10
751
20
472
30
0.0
10
751
20
465
30
0.0
10
751
20
462
30
0.0
10
751
20
460
30
0.0
10
751
20
457
30
0.0
10
751
20
456
30
0.0
10
751
20
454
30
0.0
10
751
20
452
30
0.0
10
751
20
451
30
0.0
10
750
20
449
30
0.0
10
750
20
447
30
0.0
10
750
20
446
30
0.0
10
749
20
444
30
0.0
10
749
20
443
30
0.0
10
749
20
441
30
0.0
10
749
20
440
30
0.0
10
749
20
437
30
0.0
10
749
20
436
30
0.0
10
749
20
434
30
0.0
10
749
20
431
30
0.0
10
749
20
429
30
0.0
10
749
20
427
30
0.0
10
749
20
425
30
0.0
10
749
20
422
30
0.0
10
749
20
420
30
0.0
10
747
20
417
30
0.0
10
747
20
415
30
0.0
10
747
20
414
30
0.0
10
745
20
412
30
0.0
10
744
20
410
30
0.0
10
744
20
409
30
0.0
10
742
20
407
30
0.0
10
741
20
406
30
0.0
10
739
20
404
30
0.0
10
736
20
402
30
0.0
10
732
20
400
30
0.0
10
722
20
397
30
0.0
10
715
20
395
30
0.0
10
703
20
393
30
0.0
10
687
20
390
30
0.0
10
675
20
389
30
0.0
10
669
20
388
30
0.0
10
659
20
388
30
0.0
10
650
20
388
30
0.0
10
644
20
388
30
0.0
10
639
20
386
30
0.0
10
635
20
383
30
0.0
10
631
20
380
30
0.0
10
627
20
378
30
0.0
10
624
20
377
30
0.0
10
621
20
377
30
0.0
10
619
20
377
30
0.0
10
618
20
377
30
0.0
10
616
20
377
30
0.0
10
614
20
377
30
0.0
10
612
20
377
30
0.0
10
609
20
377
30
0.0
10
605
20
375
30
0.0
10
599
20
374
30
0.0
10
594
20
371
30
0.0
10
589
20
368
30
0.0
10
588
20
366
30
0.0
10
587
20
366
30
0.0
10
584
20
364
30
0.0
10
581
20
363
30
0.0
10
578
20
361
30
0.0
10
574
20
359
30
0.0
10
568
20
357
30
0.0
10
564
20
356
30
0.0
10
561
20
354
30
0.0
10
558
20
354
30
0.0
10
555
20
353
30
0.0
10
551
20
353
30
0.0
10
546
20
353
30
0.0
10
539
20
353
30
0.0
10
527
20
351
30
0.0
10
514
20
351
30
0.0
10
502
20
351
30
0.0
10
495
20
351
30
0.0
10
490
20
351
30
0.0
10
486
20
351
30
0.0
10
479
20
353
30
0.0
10
473
20
354
30
0.0
10
466
20
356
30
0.0
10
460
20
357
30
0.0
10
458
20
357
30
0.0
10
457
20
359
30
0.0
10
456
20
359
30
0.0
10
454
20
359
30
0.0
10
452
20
360
30
0.0
10
449
20
361
30
0.0
10
443
20
362
30
0.0
10
436
20
363
30
0.0
10
428
20
364
30
0.0
10
419
20
364
30
0.0
10
413
20
364
30
0.0
10
407
20
364
30
0.0
10
403
20
363
30
0.0
10
399
20
362
30
0.0
10
395
20
360
30
0.0
10
389
20
356
30
0.0
10
384
20
351
30
0.0
10
378
20
345
30
0.0
10
373
20
341
30
0.0
10
365
20
334
30
0.0
10
362
20
331
30
0.0
10
362
20
330
30
0.0
10
360
20
328
30
0.0
10
359
20
325
30
0.0
10
356
20
322
30
0.0
10
351
20
314
30
0.0
10
348
20
309
30
0.0
10
347
20
305
30
0.0
10
345
20
300
30
0.0
10
342
20
297
30
0.0
10
341
20
295
30
0.0
10
340
20
294
30
0.0
10
340
20
292
30
0.0
10
340
20
291
30
0.0
10
340
20
290
30
0.0
10
340
20
288
30
0.0
10
340
20
287
30
0.0
10
340
20
285
30
0.0
10
340
20
283
30
0.0
10
341
20
282
30
0.0
10
343
20
280
30
0.0
10
343
20
279
30
0.0
10
345
20
277
30
0.0
10
346
20
276
30
0.0
10
347
20
274
30
0.0
10
348
20
273
30
0.0
10
349
20
272
30
0.0
10
351
20
270
30
0.0
10
351
20
268
30
0.0
10
353
20
266
30
0.0
10
354
20
265
30
0.0
10
355
20
263
30
0.0
10
355
20
262
30
0.0
10
356
20
260
30
0.0
10
357
20
259
30
0.0
10
357
20
257
30
0.0
10
357
20
256
30
0.0
10
358
20
254
30
0.0
10
358
20
253
30
0.0
10
359
20
251
30
0.0
10
360
20
248
30
0.0
10
360
20
247
30
0.0
10
360
20
245
30
0.0
10
360
20
245
30
0.0
10
360
20
243
30
0.0
10
360
20
242
30
0.0
10
360
20
241
30
0.0
10
360
20
240
30
0.0
10
360
20
239
30
0.0
10
362
20
238
30
0.0
10
362
20
237
30
0.0
10
362
20
236
30
0.0
10
362
20
234
30
0.0
10
362
20
231
30
0.0
10
361
20
227
30
0.0
10
360
20
226
30
0.0
10
358
20
224
30
0.0
10
358
20
223
30
0.0
10
357
20
222
30
0.0
10
357
20
221
30
0.0
10
357
20
220
30
0.0
10
357
20
219
30
0.0
10
355
20
219
30
0.0
10
355
20
217
30
0.0
10
354
20
217
30
0.0
10
352
20
216
30
0.0
10
351
20
214
30
0.0
10
349
20
214
30
0.0
10
348
20
212
30
0.0
10
346
20
212
30
0.0
10
346
20
211
30
0.0
10
345
20
211
30
0.0
10
345
20
210
30
0.0
10
343
20
210
30
0.0
10
342
20
210
30
0.0
10
341
20
210
30
0.0
10
339
20
210
30
0.0
10
336
20
210
30
0.0
10
334
20
210
30
0.0
10
329
20
210
30
0.0
10
326
20
210
30
0.0
10
319
20
210
30
0.0
10
314
20
210
30
0.0
10
311
20
211
30
0.0
10
307
20
211
30
0.0
10
305
20
212
30
0.0
10
303
20
212
30
0.0
10
302
20
212
30
0.0
10
300
20
212
30
0.0
10
298
20
212
30
0.0
10
295
20
213
30
0.0
10
292
20
213
30
0.0
10
291
20
213
30
0.0
10
288
20
213
30
0.0
10
288
20
214
30
0.0
10
287
20
214
30
0.0
10
286
20
214
30
0.0
10
285
20
214
30
0.0
10
282
20
215
30
0.0
10
281
20
215
30
0.0
10
278
20
215
30
0.0
10
275
20
215
30
0.0
10
274
20
215
30
0.0
10
272
20
215
30
0.0
10
271
20
215
30
0.0
10
269
20
215
30
0.0
10
267
20
215
30
0.0
10
265
20
215
30
0.0
10
264
20
215
30
0.0
10
261
20
215
30
0.0
10
257
20
215
30
0.0
10
254
20
215
30
0.0
10
252
20
215
30
0.0
10
249
20
215
30
0.0
10
247
20
215
30
0.0
10
244
20
214
30
0.0
10
243
20
214
30
0.0
10
241
20
214
30
0.0
10
241
20
213
30
0.0
10
240
20
213
30
0.0
10
238
20
213
30
0.0
10
238
20
212
30
0.0
10
236
20
212
30
0.0
10
235
20
212
30
0.0
10
235
20
211
30
0.0
10
233
20
208
30
0.0
10
232
20
207
30
0.0
10
231
20
206
30
0.0
10
230
20
205
30
0.0
10
229
20
205
30
0.0
10
229
20
203
30
0.0
10
228
20
203
30
0.0
10
228
20
202
30
0.0
10
228
20
201
30
0.0
10
228
20
200
30
0.0
10
228
20
199
30
0.0
10
228
20
198
30
0.0
10
228
20
197
30
0.0
10
228
20
196
30
0.0
10
228
20
194
30
0.0
10
228
20
193
30
0.0
10
228
20
193
30
0.0
10
229
20
192
30
0.0
10
230
20
191
30
0.0
10
231
20
191
30
0.0
10
231
20
189
30
0.0
10
232
20
189
30
0.0
10
232
20
189
30
0.0
10
233
20
189
30
0.0
10
233
20
187
30
0.0
10
234
20
187
30
0.0
10
234
20
187
30
0.0
10
235
20
187
30
0.0
10
235
20
185
30
0.0
10
237
20
184
30
0.0
10
238
20
184
30
0.0
10
240
20
184
30
0.0
10
241
20
184
30
0.0
10
241
20
182
30
0.0
10
241
20
182
30
0.0
10
242
20
182
30
0.0
10
248
20
184
30
0.0
0
ENDSEC
0
SECTION
2
OBJECTS
0
DICTIONARY
5
C
330
0
100
AcDbDictionary
3
ACAD_GROUP
350
D
3
ACAD_MLINESTYLE
350
17
0
DICTIONARY
5
D
330
C
100
AcDbDictionary
0
DICTIONARY
5
1A
330
C
100
AcDbDictionary
0
DICTIONARY
5
17
330
C
100
AcDbDictionary
3
STANDARD
350
18
0
DICTIONARY
5
19
330
C
100
AcDbDictionary
0
ENDSEC
0
EOF
