999
DXF created with openFrameworks
  0
SECTION
  2
HEADER
  9
$ACADVER
  1
AC1014
  9
$HANDSEED
  5
FFFF
  9
$MEASUREMENT
 70
     1
  0
ENDSEC
  0
SECTION
  2
TABLES
  0
TABLE
  2
VPORT
  5
8
330
0
100
AcDbSymbolTable
 70
     4
  0
VPORT
  5
2E
330
8
100
AcDbSymbolTableRecord
100
AcDbViewportTableRecord
  2
*ACTIVE
 70
     0
 10
0.0
 20
0.0
 11
1.0
 21
1.0
 12
210.0
 22
148.5
 13
0.0
 23
0.0
 14
10.0
 24
10.0
 15
10.0
 25
10.0
 16
0.0
 26
0.0
 36
1.0
 17
0.0
 27
0.0
 37
0.0
 40
341.0
 41
1.24
 42
50.0
 43
0.0
 44
0.0
 50
0.0
 51
0.0
 71
 0
 72
 100
 73
 1
 74
 3
 75
 0
 76
 0 
 77
 0 
 78
 0 
 0 
ENDTAB
 0 
TABLE
 2
LTYPE
 5
 5
 330
 0
 100
 AcDbSymbolTable
 70
 1
 0
LTYPE
 5
14
330
5
100
AcDbSymbolTableRecord
100
AcDbLinetypeTableRecord
 2
BYBLOCK
 70
 0
  3
 72
 65
 73
 0
 40
0.0
  0
LTYPE
  5
15
330
5
100
AcDbSymbolTableRecord
100
AcDbLinetypeTableRecord
  2
BYLAYER
 70
     0
  3
 72
    65
 73
     0
 40
0.0
  0
LTYPE
  5
16
330
5
100
AcDbSymbolTableRecord
100
AcDbLinetypeTableRecord
  2
CONTINUOUS
 70
 0
  3
Solid line
 72
 65
 73
     0
 40
0.0
  0
ENDTAB
  0
TABLE
  2
LAYER
  5
2
100
AcDbSymbolTable
 70
1
  0
LAYER
  5
50
100
AcDbSymbolTableRecord
100
AcDbLayerTableRecord
  2
0
 70
0
  6
CONTINUOUS
  0
ENDTAB
  0
TABLE
  2
STYLE
  5
3
330
0
100
AcDbSymbolTable
 70
     1
  0
STYLE
  5
11
330
3
100
AcDbSymbolTableRecord
100
AcDbTextStyleTableRecord
  2
STANDARD
 70
 0
 40
0.0
 41
1.0
 50
0.0
 71
 0
 42
2.5
  3
txt
  4
  0
ENDTAB
  0
TABLE
  2
VIEW
  5
6
330
0
100
AcDbSymbolTable
 70
     0
  0
ENDTAB
  0
TABLE
  2
UCS
  5
7
330
0
100
AcDbSymbolTable
 70
 0
  0
ENDTAB
  0
TABLE
  2
APPID
  5
9
330
0
100
AcDbSymbolTable
 70
     2
  0
APPID
  5
12
330
9
100
AcDbSymbolTableRecord
100
AcDbRegAppTableRecord
  2
ACAD
 70
     0
  0
ENDTAB
  0
TABLE
  2
DIMSTYLE
  5
A
330
0
100
AcDbSymbolTable
 70
     1
  0
DIMSTYLE
105
27
330
A
100
AcDbSymbolTableRecord
100
AcDbDimStyleTableRecord
  2
ISO-25
 70
 0
  3
  4
  5
  6
  7
 40
1.0
 41
2.5
 42
0.625
 43
3.75
 44
1.25
 45
0.0
 46
0.0
 47
0.0
 48
0.0
140
2.5
141
2.5
142
0.0
143
0.03937007874016
144
1.0
145
0.0
146
1.0
147
0.625
 71
     0
 72
     0
 73
     0
 74
     0
 75
     0
 76
     0
 77
     1
 78
     8
170
     0
171
     3
172
     1
173
     0
174
     0
175
     0
176
     0
177
     0
178
     0
270
     2
271
     2
272
     2
273
     2
274
     3
340
11
275
     0
280
     0
281
     0
282
     0
283
     0
284
     8
285
     0
286
     0
287
     3
288
     0
  0
ENDTAB
  0
TABLE
  2
BLOCK_RECORD
  5
1
330
0
100
AcDbSymbolTable
 70
     1
  0
BLOCK_RECORD
  5
1F
330
1
100
AcDbSymbolTableRecord
100
AcDbBlockTableRecord
  2
*MODEL_SPACE
  0
BLOCK_RECORD
  5
1B
330
1
100
AcDbSymbolTableRecord
100
AcDbBlockTableRecord
  2
*PAPER_SPACE
  0
ENDTAB
  0
ENDSEC
  0
SECTION
  2
BLOCKS
  0
BLOCK
  5
20
330
1F
100
AcDbEntity
  8
0
100
AcDbBlockBegin
  2
*MODEL_SPACE
 70
     0
 10
0.0
 20
0.0
 30
0.0
  3
*MODEL_SPACE
  1
  0
ENDBLK
  5
21
330
1F
100
AcDbEntity
  8
0
100
AcDbBlockEnd
  0
BLOCK
  5
1C
330
1B
100
AcDbEntity
 67
     1
  8
0
100
AcDbBlockBegin
  2
*PAPER_SPACE
  1
  0
ENDBLK
  5
1D
330
1B
100
AcDbEntity
 67
     1
  8
0
100
AcDbBlockEnd
  0
ENDSEC
  0
SECTION
  2
ENTITIES
  0
LWPOLYLINE
5
100
100
AcDbEntity
8
0
62
7
100
AcDbPolyline
90
199
70
0
10
125
20
148
30
0.0
10
131
20
148
30
0.0
10
137
20
148
30
0.0
10
163
20
146
30
0.0
10
176
20
142
30
0.0
10
186
20
140
30
0.0
10
195
20
137
30
0.0
10
201
20
135
30
0.0
10
207
20
134
30
0.0
10
212
20
132
30
0.0
10
220
20
131
30
0.0
10
226
20
130
30
0.0
10
232
20
128
30
0.0
10
237
20
128
30
0.0
10
238
20
127
30
0.0
10
241
20
127
30
0.0
10
246
20
126
30
0.0
10
251
20
126
30
0.0
10
269
20
125
30
0.0
10
275
20
125
30
0.0
10
281
20
125
30
0.0
10
288
20
125
30
0.0
10
295
20
125
30
0.0
10
301
20
125
30
0.0
10
310
20
125
30
0.0
10
320
20
125
30
0.0
10
327
20
126
30
0.0
10
333
20
126
30
0.0
10
341
20
128
30
0.0
10
347
20
129
30
0.0
10
361
20
134
30
0.0
10
370
20
135
30
0.0
10
379
20
139
30
0.0
10
391
20
145
30
0.0
10
405
20
151
30
0.0
10
418
20
157
30
0.0
10
434
20
166
30
0.0
10
446
20
171
30
0.0
10
459
20
179
30
0.0
10
476
20
188
30
0.0
10
487
20
194
30
0.0
10
498
20
199
30
0.0
10
506
20
206
30
0.0
10
513
20
211
30
0.0
10
526
20
224
30
0.0
10
529
20
232
30
0.0
10
531
20
237
30
0.0
10
533
20
240
30
0.0
10
535
20
243
30
0.0
10
536
20
248
30
0.0
10
539
20
252
30
0.0
10
544
20
256
30
0.0
10
550
20
259
30
0.0
10
558
20
262
30
0.0
10
568
20
265
30
0.0
10
583
20
266
30
0.0
10
599
20
267
30
0.0
10
618
20
267
30
0.0
10
648
20
264
30
0.0
10
696
20
258
30
0.0
10
723
20
255
30
0.0
10
740
20
254
30
0.0
10
749
20
254
30
0.0
10
758
20
254
30
0.0
10
765
20
257
30
0.0
10
771
20
260
30
0.0
10
779
20
265
30
0.0
10
788
20
271
30
0.0
10
796
20
277
30
0.0
10
802
20
283
30
0.0
10
807
20
289
30
0.0
10
814
20
303
30
0.0
10
816
20
312
30
0.0
10
817
20
321
30
0.0
10
819
20
327
30
0.0
10
819
20
335
30
0.0
10
819
20
344
30
0.0
10
818
20
352
30
0.0
10
815
20
363
30
0.0
10
811
20
372
30
0.0
10
803
20
381
30
0.0
10
796
20
392
30
0.0
10
786
20
401
30
0.0
10
777
20
410
30
0.0
10
768
20
416
30
0.0
10
755
20
426
30
0.0
10
729
20
440
30
0.0
10
714
20
446
30
0.0
10
698
20
452
30
0.0
10
683
20
457
30
0.0
10
668
20
460
30
0.0
10
660
20
462
30
0.0
10
654
20
464
30
0.0
10
647
20
464
30
0.0
10
635
20
464
30
0.0
10
622
20
464
30
0.0
10
609
20
464
30
0.0
10
595
20
464
30
0.0
10
574
20
464
30
0.0
10
563
20
461
30
0.0
10
547
20
457
30
0.0
10
536
20
454
30
0.0
10
530
20
451
30
0.0
10
524
20
449
30
0.0
10
521
20
446
30
0.0
10
516
20
441
30
0.0
10
499
20
429
30
0.0
10
489
20
423
30
0.0
10
483
20
417
30
0.0
10
475
20
411
30
0.0
10
467
20
404
30
0.0
10
460
20
396
30
0.0
10
451
20
387
30
0.0
10
440
20
372
30
0.0
10
437
20
367
30
0.0
10
435
20
363
30
0.0
10
430
20
357
30
0.0
10
424
20
349
30
0.0
10
416
20
342
30
0.0
10
404
20
331
30
0.0
10
398
20
326
30
0.0
10
390
20
320
30
0.0
10
385
20
315
30
0.0
10
379
20
310
30
0.0
10
371
20
304
30
0.0
10
364
20
298
30
0.0
10
357
20
295
30
0.0
10
348
20
291
30
0.0
10
339
20
289
30
0.0
10
332
20
287
30
0.0
10
319
20
286
30
0.0
10
307
20
286
30
0.0
10
294
20
286
30
0.0
10
278
20
289
30
0.0
10
266
20
292
30
0.0
10
258
20
296
30
0.0
10
249
20
297
30
0.0
10
241
20
300
30
0.0
10
234
20
301
30
0.0
10
228
20
302
30
0.0
10
221
20
303
30
0.0
10
215
20
303
30
0.0
10
211
20
303
30
0.0
10
207
20
303
30
0.0
10
204
20
303
30
0.0
10
200
20
303
30
0.0
10
198
20
303
30
0.0
10
195
20
303
30
0.0
10
192
20
303
30
0.0
10
187
20
303
30
0.0
10
183
20
300
30
0.0
10
176
20
297
30
0.0
10
169
20
293
30
0.0
10
162
20
289
30
0.0
10
157
20
286
30
0.0
10
155
20
283
30
0.0
10
151
20
279
30
0.0
10
148
20
276
30
0.0
10
145
20
272
30
0.0
10
140
20
266
30
0.0
10
137
20
260
30
0.0
10
136
20
257
30
0.0
10
133
20
253
30
0.0
10
132
20
249
30
0.0
10
129
20
244
30
0.0
10
128
20
241
30
0.0
10
127
20
237
30
0.0
10
126
20
232
30
0.0
10
126
20
228
30
0.0
10
126
20
223
30
0.0
10
124
20
219
30
0.0
10
123
20
214
30
0.0
10
123
20
211
30
0.0
10
121
20
206
30
0.0
10
121
20
203
30
0.0
10
120
20
200
30
0.0
10
120
20
195
30
0.0
10
120
20
192
30
0.0
10
120
20
189
30
0.0
10
120
20
186
30
0.0
10
120
20
183
30
0.0
10
120
20
180
30
0.0
10
120
20
177
30
0.0
10
120
20
172
30
0.0
10
120
20
171
30
0.0
10
120
20
168
30
0.0
10
119
20
166
30
0.0
10
119
20
164
30
0.0
10
119
20
163
30
0.0
10
119
20
161
30
0.0
10
119
20
160
30
0.0
10
119
20
158
30
0.0
10
119
20
156
30
0.0
10
119
20
153
30
0.0
10
119
20
151
30
0.0
10
120
20
149
30
0.0
10
120
20
148
30
0.0
10
120
20
146
30
0.0
10
120
20
145
30
0.0
10
125
20
148
30
0.0
0
LWPOLYLINE
5
100
100
AcDbEntity
8
0
62
7
100
AcDbPolyline
90
217
70
0
10
589
20
105
30
0.0
10
598
20
107
30
0.0
10
606
20
107
30
0.0
10
619
20
107
30
0.0
10
632
20
107
30
0.0
10
655
20
108
30
0.0
10
671
20
108
30
0.0
10
687
20
110
30
0.0
10
722
20
117
30
0.0
10
740
20
122
30
0.0
10
756
20
128
30
0.0
10
772
20
135
30
0.0
10
785
20
141
30
0.0
10
799
20
147
30
0.0
10
812
20
153
30
0.0
10
825
20
161
30
0.0
10
834
20
168
30
0.0
10
845
20
176
30
0.0
10
852
20
183
30
0.0
10
858
20
191
30
0.0
10
866
20
199
30
0.0
10
870
20
207
30
0.0
10
873
20
213
30
0.0
10
875
20
218
30
0.0
10
876
20
222
30
0.0
10
877
20
225
30
0.0
10
877
20
228
30
0.0
10
876
20
233
30
0.0
10
875
20
237
30
0.0
10
873
20
241
30
0.0
10
870
20
247
30
0.0
10
866
20
252
30
0.0
10
857
20
262
30
0.0
10
853
20
266
30
0.0
10
847
20
270
30
0.0
10
842
20
273
30
0.0
10
835
20
276
30
0.0
10
829
20
276
30
0.0
10
816
20
277
30
0.0
10
803
20
278
30
0.0
10
785
20
279
30
0.0
10
772
20
280
30
0.0
10
762
20
280
30
0.0
10
751
20
280
30
0.0
10
738
20
282
30
0.0
10
724
20
282
30
0.0
10
707
20
285
30
0.0
10
693
20
288
30
0.0
10
681
20
289
30
0.0
10
672
20
291
30
0.0
10
664
20
294
30
0.0
10
659
20
297
30
0.0
10
655
20
302
30
0.0
10
651
20
306
30
0.0
10
647
20
311
30
0.0
10
644
20
314
30
0.0
10
644
20
319
30
0.0
10
642
20
325
30
0.0
10
642
20
331
30
0.0
10
642
20
340
30
0.0
10
644
20
348
30
0.0
10
647
20
354
30
0.0
10
652
20
360
30
0.0
10
658
20
366
30
0.0
10
664
20
371
30
0.0
10
670
20
374
30
0.0
10
676
20
380
30
0.0
10
682
20
384
30
0.0
10
689
20
389
30
0.0
10
696
20
397
30
0.0
10
702
20
406
30
0.0
10
707
20
411
30
0.0
10
708
20
417
30
0.0
10
710
20
421
30
0.0
10
710
20
425
30
0.0
10
710
20
428
30
0.0
10
709
20
437
30
0.0
10
704
20
451
30
0.0
10
698
20
463
30
0.0
10
693
20
472
30
0.0
10
687
20
481
30
0.0
10
681
20
487
30
0.0
10
676
20
490
30
0.0
10
668
20
494
30
0.0
10
659
20
497
30
0.0
10
645
20
501
30
0.0
10
629
20
504
30
0.0
10
613
20
507
30
0.0
10
595
20
509
30
0.0
10
568
20
511
30
0.0
10
549
20
512
30
0.0
10
534
20
514
30
0.0
10
515
20
514
30
0.0
10
470
20
512
30
0.0
10
439
20
507
30
0.0
10
415
20
501
30
0.0
10
398
20
496
30
0.0
10
382
20
490
30
0.0
10
366
20
482
30
0.0
10
350
20
473
30
0.0
10
338
20
466
30
0.0
10
327
20
457
30
0.0
10
316
20
448
30
0.0
10
307
20
438
30
0.0
10
300
20
429
30
0.0
10
296
20
421
30
0.0
10
295
20
415
30
0.0
10
293
20
405
30
0.0
10
292
20
393
30
0.0
10
292
20
383
30
0.0
10
293
20
372
30
0.0
10
298
20
361
30
0.0
10
303
20
349
30
0.0
10
307
20
340
30
0.0
10
313
20
332
30
0.0
10
318
20
325
30
0.0
10
324
20
320
30
0.0
10
330
20
316
30
0.0
10
337
20
314
30
0.0
10
343
20
311
30
0.0
10
351
20
309
30
0.0
10
361
20
308
30
0.0
10
370
20
307
30
0.0
10
379
20
306
30
0.0
10
390
20
303
30
0.0
10
397
20
300
30
0.0
10
403
20
299
30
0.0
10
407
20
296
30
0.0
10
412
20
292
30
0.0
10
413
20
288
30
0.0
10
415
20
285
30
0.0
10
416
20
280
30
0.0
10
416
20
275
30
0.0
10
416
20
269
30
0.0
10
413
20
260
30
0.0
10
410
20
254
30
0.0
10
407
20
249
30
0.0
10
401
20
241
30
0.0
10
397
20
234
30
0.0
10
390
20
226
30
0.0
10
387
20
220
30
0.0
10
382
20
212
30
0.0
10
378
20
207
30
0.0
10
373
20
201
30
0.0
10
371
20
197
30
0.0
10
368
20
192
30
0.0
10
367
20
189
30
0.0
10
367
20
184
30
0.0
10
367
20
178
30
0.0
10
367
20
174
30
0.0
10
367
20
168
30
0.0
10
369
20
163
30
0.0
10
372
20
157
30
0.0
10
376
20
149
30
0.0
10
383
20
142
30
0.0
10
392
20
134
30
0.0
10
398
20
128
30
0.0
10
403
20
126
30
0.0
10
407
20
123
30
0.0
10
411
20
120
30
0.0
10
416
20
119
30
0.0
10
423
20
118
30
0.0
10
432
20
118
30
0.0
10
438
20
118
30
0.0
10
445
20
120
30
0.0
10
461
20
126
30
0.0
10
471
20
128
30
0.0
10
481
20
131
30
0.0
10
493
20
134
30
0.0
10
500
20
137
30
0.0
10
507
20
138
30
0.0
10
515
20
140
30
0.0
10
522
20
141
30
0.0
10
528
20
141
30
0.0
10
533
20
141
30
0.0
10
539
20
140
30
0.0
10
542
20
138
30
0.0
10
543
20
135
30
0.0
10
545
20
134
30
0.0
10
547
20
131
30
0.0
10
548
20
128
30
0.0
10
548
20
126
30
0.0
10
549
20
122
30
0.0
10
549
20
119
30
0.0
10
549
20
113
30
0.0
10
547
20
105
30
0.0
10
546
20
100
30
0.0
10
545
20
97
30
0.0
10
545
20
94
30
0.0
10
545
20
91
30
0.0
10
545
20
89
30
0.0
10
545
20
88
30
0.0
10
545
20
86
30
0.0
10
547
20
85
30
0.0
10
548
20
85
30
0.0
10
550
20
85
30
0.0
10
555
20
85
30
0.0
10
559
20
85
30
0.0
10
563
20
85
30
0.0
10
567
20
85
30
0.0
10
570
20
85
30
0.0
10
573
20
85
30
0.0
10
579
20
86
30
0.0
10
581
20
86
30
0.0
10
582
20
87
30
0.0
10
585
20
88
30
0.0
10
586
20
90
30
0.0
10
588
20
91
30
0.0
10
588
20
93
30
0.0
10
589
20
96
30
0.0
10
589
20
98
30
0.0
10
589
20
99
30
0.0
10
589
20
100
30
0.0
10
589
20
101
30
0.0
10
589
20
102
30
0.0
10
589
20
102
30
0.0
10
589
20
103
30
0.0
10
589
20
105
30
0.0
0
ENDSEC
0
SECTION
2
OBJECTS
0
DICTIONARY
5
C
330
0
100
AcDbDictionary
3
ACAD_GROUP
350
D
3
ACAD_MLINESTYLE
350
17
0
DICTIONARY
5
D
330
C
100
AcDbDictionary
0
DICTIONARY
5
1A
330
C
100
AcDbDictionary
0
DICTIONARY
5
17
330
C
100
AcDbDictionary
3
STANDARD
350
18
0
DICTIONARY
5
19
330
C
100
AcDbDictionary
0
ENDSEC
0
EOF
